<mxfile host="Electron" modified="2024-01-09T12:53:26.380Z" agent="Mozilla/5.0 (Windows NT 10.0; Win64; x64) AppleWebKit/537.36 (KHTML, like Gecko) draw.io/22.1.16 Chrome/120.0.6099.109 Electron/28.1.0 Safari/537.36" etag="xTCCVKTv3IIVKhqWKvLk" version="22.1.16" type="device">
  <diagram name="Sida-1" id="Knd_nyok4LU6rAIHhUxP">
    <mxGraphModel dx="778" dy="522" grid="1" gridSize="10" guides="1" tooltips="1" connect="1" arrows="1" fold="1" page="1" pageScale="1" pageWidth="827" pageHeight="1169" math="0" shadow="0">
      <root>
        <mxCell id="0" />
        <mxCell id="1" parent="0" />
        <mxCell id="SkQtD9sbok_RmB99mSB_-1" value="" style="rounded=0;whiteSpace=wrap;html=1;fillColor=#ffcd28;gradientColor=#ffa500;strokeColor=#d79b00;" vertex="1" parent="1">
          <mxGeometry x="1040" y="400" width="40" height="40" as="geometry" />
        </mxCell>
        <mxCell id="pakmp5gaQRSUFP-iVXFv-212" value="" style="rounded=0;whiteSpace=wrap;html=1;fillColor=#ffcd28;gradientColor=#ffa500;strokeColor=#d79b00;" parent="1" vertex="1">
          <mxGeometry x="1040" y="441" width="40" height="40" as="geometry" />
        </mxCell>
        <mxCell id="pakmp5gaQRSUFP-iVXFv-227" value="" style="rounded=0;whiteSpace=wrap;html=1;fillColor=#d5e8d4;gradientColor=#97d077;strokeColor=#82b366;" parent="1" vertex="1">
          <mxGeometry x="1320" y="200" width="80" height="40" as="geometry" />
        </mxCell>
        <mxCell id="pakmp5gaQRSUFP-iVXFv-226" value="" style="text;html=1;strokeColor=#82b366;fillColor=#CCFFCC;align=center;verticalAlign=middle;whiteSpace=wrap;rounded=0;gradientColor=#007FFF;" parent="1" vertex="1">
          <mxGeometry x="1079.5" y="240" width="80" height="40" as="geometry" />
        </mxCell>
        <mxCell id="pakmp5gaQRSUFP-iVXFv-225" value="" style="text;html=1;strokeColor=#82b366;fillColor=#CCFFCC;align=center;verticalAlign=middle;whiteSpace=wrap;rounded=0;gradientColor=#007FFF;" parent="1" vertex="1">
          <mxGeometry x="1000" y="240" width="40" height="40" as="geometry" />
        </mxCell>
        <mxCell id="pakmp5gaQRSUFP-iVXFv-223" value="" style="text;html=1;strokeColor=#82b366;fillColor=#00FFFF;align=center;verticalAlign=middle;whiteSpace=wrap;rounded=0;gradientColor=#FFFF66;" parent="1" vertex="1">
          <mxGeometry x="960" y="280" width="40" height="40" as="geometry" />
        </mxCell>
        <mxCell id="pakmp5gaQRSUFP-iVXFv-47" value="&lt;font style=&quot;font-size: 18px;&quot;&gt;𝜏&lt;/font&gt;&lt;font style=&quot;font-size: 15px;&quot;&gt;&lt;sub&gt;1&lt;/sub&gt;&lt;/font&gt;" style="text;html=1;strokeColor=#82b366;fillColor=#d5e8d4;align=center;verticalAlign=middle;whiteSpace=wrap;rounded=0;gradientColor=#97d077;" parent="1" vertex="1">
          <mxGeometry x="80" y="200" width="40" height="40" as="geometry" />
        </mxCell>
        <mxCell id="pakmp5gaQRSUFP-iVXFv-48" value="&lt;font style=&quot;border-color: var(--border-color); font-size: 18px;&quot;&gt;𝜏&lt;/font&gt;&lt;font style=&quot;border-color: var(--border-color); font-size: 12.5px;&quot;&gt;&lt;sub&gt;2&lt;/sub&gt;&lt;/font&gt;" style="text;html=1;strokeColor=#82b366;fillColor=#CCFFCC;align=center;verticalAlign=middle;whiteSpace=wrap;rounded=0;gradientColor=#007FFF;" parent="1" vertex="1">
          <mxGeometry x="80" y="240" width="40" height="40" as="geometry" />
        </mxCell>
        <mxCell id="pakmp5gaQRSUFP-iVXFv-49" value="&lt;font style=&quot;border-color: var(--border-color); font-size: 18px;&quot;&gt;𝜏&lt;/font&gt;&lt;font style=&quot;border-color: var(--border-color); font-size: 12.5px;&quot;&gt;&lt;sub&gt;3&lt;/sub&gt;&lt;/font&gt;" style="text;html=1;strokeColor=#82b366;fillColor=#00FFFF;align=center;verticalAlign=middle;whiteSpace=wrap;rounded=0;gradientColor=#FFFF66;" parent="1" vertex="1">
          <mxGeometry x="80" y="280" width="40" height="40" as="geometry" />
        </mxCell>
        <mxCell id="pakmp5gaQRSUFP-iVXFv-76" value="&lt;font style=&quot;border-color: var(--border-color); font-size: 18px;&quot;&gt;𝜏&lt;/font&gt;&lt;font style=&quot;border-color: var(--border-color); font-size: 12.5px;&quot;&gt;&lt;sub&gt;4&lt;/sub&gt;&lt;/font&gt;" style="text;html=1;strokeColor=#b85450;fillColor=#FFFF33;align=center;verticalAlign=middle;whiteSpace=wrap;rounded=0;gradientColor=#EA0000;" parent="1" vertex="1">
          <mxGeometry x="80" y="320" width="40" height="40" as="geometry" />
        </mxCell>
        <mxCell id="pakmp5gaQRSUFP-iVXFv-75" value="&lt;font style=&quot;border-color: var(--border-color); font-size: 18px;&quot;&gt;𝜏&lt;/font&gt;&lt;font style=&quot;border-color: var(--border-color); font-size: 12.5px;&quot;&gt;&lt;sub&gt;5&lt;/sub&gt;&lt;/font&gt;" style="text;html=1;strokeColor=#b85450;fillColor=#f8cecc;align=center;verticalAlign=middle;whiteSpace=wrap;rounded=0;gradientColor=#ea6b66;" parent="1" vertex="1">
          <mxGeometry x="80" y="360" width="40" height="40" as="geometry" />
        </mxCell>
        <mxCell id="pakmp5gaQRSUFP-iVXFv-89" value="&lt;font style=&quot;border-color: var(--border-color); font-size: 18px;&quot;&gt;𝜏&lt;/font&gt;&lt;font style=&quot;border-color: var(--border-color); font-size: 12.5px;&quot;&gt;&lt;sub&gt;6&lt;/sub&gt;&lt;/font&gt;" style="text;html=1;strokeColor=#d79b00;fillColor=#ffcd28;align=center;verticalAlign=middle;whiteSpace=wrap;rounded=0;gradientColor=#ffa500;" parent="1" vertex="1">
          <mxGeometry x="80" y="400" width="40" height="40" as="geometry" />
        </mxCell>
        <mxCell id="pakmp5gaQRSUFP-iVXFv-134" value="VM" style="text;html=1;strokeColor=#006EAF;fillColor=#1ba1e2;align=center;verticalAlign=middle;whiteSpace=wrap;rounded=0;fontColor=#ffffff;" parent="1" vertex="1">
          <mxGeometry x="80" y="440" width="40" height="40" as="geometry" />
        </mxCell>
        <mxCell id="pakmp5gaQRSUFP-iVXFv-88" value="VM3" style="text;html=1;strokeColor=#d79b00;fillColor=#ffcd28;align=center;verticalAlign=middle;whiteSpace=wrap;rounded=0;gradientColor=#ffa500;" parent="1" vertex="1">
          <mxGeometry x="40" y="400" width="40" height="40" as="geometry" />
        </mxCell>
        <mxCell id="pakmp5gaQRSUFP-iVXFv-87" value="VM2" style="text;html=1;strokeColor=#b85450;fillColor=#f8cecc;align=center;verticalAlign=middle;whiteSpace=wrap;rounded=0;gradientColor=#ea6b66;" parent="1" vertex="1">
          <mxGeometry x="40" y="320" width="40" height="80" as="geometry" />
        </mxCell>
        <mxCell id="pakmp5gaQRSUFP-iVXFv-86" value="VM1" style="text;html=1;strokeColor=#82b366;fillColor=#d5e8d4;align=center;verticalAlign=middle;whiteSpace=wrap;rounded=0;gradientColor=#97d077;" parent="1" vertex="1">
          <mxGeometry x="40" y="200" width="40" height="120" as="geometry" />
        </mxCell>
        <mxCell id="pakmp5gaQRSUFP-iVXFv-222" value="" style="rounded=0;whiteSpace=wrap;html=1;fillColor=#ffcd28;gradientColor=#ffa500;strokeColor=#d79b00;" parent="1" vertex="1">
          <mxGeometry x="1160" y="400" width="40" height="40" as="geometry" />
        </mxCell>
        <mxCell id="pakmp5gaQRSUFP-iVXFv-221" value="" style="rounded=0;whiteSpace=wrap;html=1;fillColor=#f8cecc;gradientColor=#ea6b66;strokeColor=#b85450;" parent="1" vertex="1">
          <mxGeometry x="1200" y="360" width="120" height="40" as="geometry" />
        </mxCell>
        <mxCell id="pakmp5gaQRSUFP-iVXFv-219" value="" style="rounded=0;whiteSpace=wrap;html=1;fillColor=#FFFF33;gradientColor=#FF0000;strokeColor=#b85450;" parent="1" vertex="1">
          <mxGeometry x="840" y="320" width="120" height="40" as="geometry" />
        </mxCell>
        <mxCell id="pakmp5gaQRSUFP-iVXFv-218" value="" style="rounded=0;whiteSpace=wrap;html=1;fillColor=#d5e8d4;gradientColor=#97d077;strokeColor=#82b366;" parent="1" vertex="1">
          <mxGeometry x="760" y="200" width="80" height="40" as="geometry" />
        </mxCell>
        <mxCell id="pakmp5gaQRSUFP-iVXFv-216" value="" style="rounded=0;whiteSpace=wrap;html=1;fillColor=#d5e8d4;gradientColor=#97d077;strokeColor=#82b366;" parent="1" vertex="1">
          <mxGeometry x="1320" y="440" width="80" height="40" as="geometry" />
        </mxCell>
        <mxCell id="pakmp5gaQRSUFP-iVXFv-213" value="" style="rounded=0;whiteSpace=wrap;html=1;fillColor=#f8cecc;gradientColor=#ea6b66;strokeColor=#b85450;" parent="1" vertex="1">
          <mxGeometry x="1241" y="441" width="79" height="40" as="geometry" />
        </mxCell>
        <mxCell id="pakmp5gaQRSUFP-iVXFv-215" value="" style="rounded=0;whiteSpace=wrap;html=1;fillColor=#ffcd28;gradientColor=#ffa500;strokeColor=#d79b00;" parent="1" vertex="1">
          <mxGeometry x="1160" y="440" width="40" height="40" as="geometry" />
        </mxCell>
        <mxCell id="pakmp5gaQRSUFP-iVXFv-214" value="" style="rounded=0;whiteSpace=wrap;html=1;fillColor=#d5e8d4;gradientColor=#97d077;strokeColor=#82b366;" parent="1" vertex="1">
          <mxGeometry x="1080" y="441" width="80" height="40" as="geometry" />
        </mxCell>
        <mxCell id="pakmp5gaQRSUFP-iVXFv-210" value="" style="rounded=0;whiteSpace=wrap;html=1;fillColor=#f8cecc;gradientColor=#ea6b66;strokeColor=#b85450;" parent="1" vertex="1">
          <mxGeometry x="1200" y="440" width="40" height="40" as="geometry" />
        </mxCell>
        <mxCell id="pakmp5gaQRSUFP-iVXFv-209" value="" style="rounded=0;whiteSpace=wrap;html=1;fillColor=#d5e8d4;gradientColor=#97d077;strokeColor=#82b366;" parent="1" vertex="1">
          <mxGeometry x="960" y="440" width="80" height="40" as="geometry" />
        </mxCell>
        <mxCell id="pakmp5gaQRSUFP-iVXFv-208" value="" style="rounded=0;whiteSpace=wrap;html=1;fillColor=#f8cecc;gradientColor=#ea6b66;strokeColor=#b85450;" parent="1" vertex="1">
          <mxGeometry x="840" y="440" width="120" height="40" as="geometry" />
        </mxCell>
        <mxCell id="pakmp5gaQRSUFP-iVXFv-207" value="" style="rounded=0;whiteSpace=wrap;html=1;fillColor=#d5e8d4;gradientColor=#97d077;strokeColor=#82b366;" parent="1" vertex="1">
          <mxGeometry x="760" y="440" width="80" height="40" as="geometry" />
        </mxCell>
        <mxCell id="pakmp5gaQRSUFP-iVXFv-1" value="" style="rounded=0;whiteSpace=wrap;html=1;fillColor=#ffcd28;gradientColor=#ffa500;strokeColor=#d79b00;" parent="1" vertex="1">
          <mxGeometry x="520" y="400" width="40" height="40" as="geometry" />
        </mxCell>
        <mxCell id="pakmp5gaQRSUFP-iVXFv-2" value="" style="rounded=0;whiteSpace=wrap;html=1;fillColor=#ffcd28;gradientColor=#ffa500;strokeColor=#d79b00;" parent="1" vertex="1">
          <mxGeometry x="400" y="400" width="40" height="40" as="geometry" />
        </mxCell>
        <mxCell id="pakmp5gaQRSUFP-iVXFv-3" value="" style="rounded=0;whiteSpace=wrap;html=1;fillColor=#f8cecc;gradientColor=#ea6b66;strokeColor=#b85450;" parent="1" vertex="1">
          <mxGeometry x="640" y="360" width="40" height="40" as="geometry" />
        </mxCell>
        <mxCell id="pakmp5gaQRSUFP-iVXFv-4" value="" style="rounded=0;whiteSpace=wrap;html=1;fillColor=#f8cecc;gradientColor=#ea6b66;strokeColor=#b85450;" parent="1" vertex="1">
          <mxGeometry x="560" y="360" width="80" height="40" as="geometry" />
        </mxCell>
        <mxCell id="pakmp5gaQRSUFP-iVXFv-5" value="" style="text;html=1;strokeColor=#82b366;fillColor=#00FFFF;align=center;verticalAlign=middle;whiteSpace=wrap;rounded=0;gradientColor=#FFFF66;" parent="1" vertex="1">
          <mxGeometry x="720" y="280" width="40" height="40" as="geometry" />
        </mxCell>
        <mxCell id="pakmp5gaQRSUFP-iVXFv-6" value="" style="rounded=0;whiteSpace=wrap;html=1;fillColor=#d5e8d4;gradientColor=#97d077;strokeColor=#82b366;" parent="1" vertex="1">
          <mxGeometry x="440" y="200" width="80" height="40" as="geometry" />
        </mxCell>
        <mxCell id="pakmp5gaQRSUFP-iVXFv-7" value="" style="text;html=1;strokeColor=#82b366;fillColor=#CCFFCC;align=center;verticalAlign=middle;whiteSpace=wrap;rounded=0;gradientColor=#007FFF;" parent="1" vertex="1">
          <mxGeometry x="680" y="240" width="40" height="40" as="geometry" />
        </mxCell>
        <mxCell id="pakmp5gaQRSUFP-iVXFv-8" value="" style="text;html=1;strokeColor=#82b366;fillColor=#CCFFCC;align=center;verticalAlign=middle;whiteSpace=wrap;rounded=0;gradientColor=#007FFF;" parent="1" vertex="1">
          <mxGeometry x="320" y="240" width="80" height="40" as="geometry" />
        </mxCell>
        <mxCell id="pakmp5gaQRSUFP-iVXFv-9" value="" style="rounded=0;whiteSpace=wrap;html=1;fillColor=#FFFF33;gradientColor=#FF0000;strokeColor=#b85450;" parent="1" vertex="1">
          <mxGeometry x="280" y="320" width="40" height="40" as="geometry" />
        </mxCell>
        <mxCell id="pakmp5gaQRSUFP-iVXFv-10" value="" style="rounded=0;whiteSpace=wrap;html=1;fillColor=#FFFF33;gradientColor=#FF0000;strokeColor=#b85450;" parent="1" vertex="1">
          <mxGeometry x="200" y="320" width="80" height="40" as="geometry" />
        </mxCell>
        <mxCell id="pakmp5gaQRSUFP-iVXFv-11" value="" style="rounded=0;whiteSpace=wrap;html=1;fillColor=#d5e8d4;gradientColor=#97d077;strokeColor=#82b366;" parent="1" vertex="1">
          <mxGeometry x="120" y="200" width="80" height="40" as="geometry" />
        </mxCell>
        <mxCell id="pakmp5gaQRSUFP-iVXFv-12" value="" style="rounded=0;whiteSpace=wrap;html=1;fillColor=#ffcd28;gradientColor=#ffa500;strokeColor=#d79b00;" parent="1" vertex="1">
          <mxGeometry x="520" y="440" width="40" height="40" as="geometry" />
        </mxCell>
        <mxCell id="pakmp5gaQRSUFP-iVXFv-13" value="" style="rounded=0;whiteSpace=wrap;html=1;fillColor=#f8cecc;gradientColor=#ea6b66;strokeColor=#b85450;" parent="1" vertex="1">
          <mxGeometry x="640" y="440" width="40" height="40" as="geometry" />
        </mxCell>
        <mxCell id="pakmp5gaQRSUFP-iVXFv-14" value="" style="rounded=0;whiteSpace=wrap;html=1;fillColor=#d5e8d4;gradientColor=#97d077;strokeColor=#82b366;" parent="1" vertex="1">
          <mxGeometry x="680" y="440" width="80" height="40" as="geometry" />
        </mxCell>
        <mxCell id="pakmp5gaQRSUFP-iVXFv-15" value="" style="rounded=0;whiteSpace=wrap;html=1;fillColor=#f8cecc;gradientColor=#ea6b66;strokeColor=#b85450;" parent="1" vertex="1">
          <mxGeometry x="560" y="440" width="80" height="40" as="geometry" />
        </mxCell>
        <mxCell id="pakmp5gaQRSUFP-iVXFv-16" value="" style="rounded=0;whiteSpace=wrap;html=1;fillColor=#d5e8d4;gradientColor=#97d077;strokeColor=#82b366;" parent="1" vertex="1">
          <mxGeometry x="440" y="440" width="80" height="40" as="geometry" />
        </mxCell>
        <mxCell id="pakmp5gaQRSUFP-iVXFv-17" value="" style="rounded=0;whiteSpace=wrap;html=1;fillColor=#ffcd28;gradientColor=#ffa500;strokeColor=#d79b00;" parent="1" vertex="1">
          <mxGeometry x="400" y="440" width="40" height="40" as="geometry" />
        </mxCell>
        <mxCell id="pakmp5gaQRSUFP-iVXFv-18" value="" style="rounded=0;whiteSpace=wrap;html=1;fillColor=#f8cecc;gradientColor=#ea6b66;strokeColor=#b85450;" parent="1" vertex="1">
          <mxGeometry x="280" y="440" width="40" height="40" as="geometry" />
        </mxCell>
        <mxCell id="pakmp5gaQRSUFP-iVXFv-19" value="" style="rounded=0;whiteSpace=wrap;html=1;fillColor=#d5e8d4;gradientColor=#97d077;strokeColor=#82b366;" parent="1" vertex="1">
          <mxGeometry x="320" y="440" width="80" height="40" as="geometry" />
        </mxCell>
        <mxCell id="pakmp5gaQRSUFP-iVXFv-20" value="" style="rounded=0;whiteSpace=wrap;html=1;fillColor=#f8cecc;gradientColor=#ea6b66;strokeColor=#b85450;" parent="1" vertex="1">
          <mxGeometry x="200" y="440" width="80" height="40" as="geometry" />
        </mxCell>
        <mxCell id="pakmp5gaQRSUFP-iVXFv-21" value="" style="rounded=0;whiteSpace=wrap;html=1;fillColor=#d5e8d4;gradientColor=#97d077;strokeColor=#82b366;" parent="1" vertex="1">
          <mxGeometry x="120" y="440" width="80" height="40" as="geometry" />
        </mxCell>
        <mxCell id="pakmp5gaQRSUFP-iVXFv-22" value="" style="endArrow=none;html=1;rounded=0;exitX=0.5;exitY=0;exitDx=0;exitDy=0;" parent="1" source="pakmp5gaQRSUFP-iVXFv-50" edge="1">
          <mxGeometry width="50" height="50" relative="1" as="geometry">
            <mxPoint x="120" y="360" as="sourcePoint" />
            <mxPoint x="120" y="200" as="targetPoint" />
            <Array as="points" />
          </mxGeometry>
        </mxCell>
        <mxCell id="pakmp5gaQRSUFP-iVXFv-23" value="" style="endArrow=none;html=1;rounded=0;exitX=0.5;exitY=0;exitDx=0;exitDy=0;" parent="1" source="pakmp5gaQRSUFP-iVXFv-51" edge="1">
          <mxGeometry width="50" height="50" relative="1" as="geometry">
            <mxPoint x="160" y="360" as="sourcePoint" />
            <mxPoint x="160" y="200" as="targetPoint" />
            <Array as="points" />
          </mxGeometry>
        </mxCell>
        <mxCell id="pakmp5gaQRSUFP-iVXFv-24" value="" style="endArrow=none;html=1;rounded=0;exitX=0.5;exitY=0;exitDx=0;exitDy=0;" parent="1" source="pakmp5gaQRSUFP-iVXFv-52" edge="1">
          <mxGeometry width="50" height="50" relative="1" as="geometry">
            <mxPoint x="200" y="360" as="sourcePoint" />
            <mxPoint x="200" y="200" as="targetPoint" />
            <Array as="points" />
          </mxGeometry>
        </mxCell>
        <mxCell id="pakmp5gaQRSUFP-iVXFv-25" value="" style="endArrow=none;html=1;rounded=0;exitX=0.5;exitY=0;exitDx=0;exitDy=0;" parent="1" source="pakmp5gaQRSUFP-iVXFv-53" edge="1">
          <mxGeometry width="50" height="50" relative="1" as="geometry">
            <mxPoint x="240" y="360" as="sourcePoint" />
            <mxPoint x="240" y="200" as="targetPoint" />
            <Array as="points" />
          </mxGeometry>
        </mxCell>
        <mxCell id="pakmp5gaQRSUFP-iVXFv-26" value="" style="endArrow=none;html=1;rounded=0;exitX=0.5;exitY=0;exitDx=0;exitDy=0;" parent="1" source="pakmp5gaQRSUFP-iVXFv-54" edge="1">
          <mxGeometry width="50" height="50" relative="1" as="geometry">
            <mxPoint x="280" y="360" as="sourcePoint" />
            <mxPoint x="280" y="200" as="targetPoint" />
            <Array as="points" />
          </mxGeometry>
        </mxCell>
        <mxCell id="pakmp5gaQRSUFP-iVXFv-27" value="" style="endArrow=none;html=1;rounded=0;exitX=0.5;exitY=0;exitDx=0;exitDy=0;" parent="1" source="pakmp5gaQRSUFP-iVXFv-55" edge="1">
          <mxGeometry width="50" height="50" relative="1" as="geometry">
            <mxPoint x="320" y="360" as="sourcePoint" />
            <mxPoint x="320" y="200" as="targetPoint" />
            <Array as="points" />
          </mxGeometry>
        </mxCell>
        <mxCell id="pakmp5gaQRSUFP-iVXFv-28" value="" style="endArrow=none;html=1;rounded=0;exitX=0.5;exitY=0;exitDx=0;exitDy=0;" parent="1" source="pakmp5gaQRSUFP-iVXFv-56" edge="1">
          <mxGeometry width="50" height="50" relative="1" as="geometry">
            <mxPoint x="360" y="360" as="sourcePoint" />
            <mxPoint x="360" y="200" as="targetPoint" />
            <Array as="points" />
          </mxGeometry>
        </mxCell>
        <mxCell id="pakmp5gaQRSUFP-iVXFv-29" value="" style="endArrow=none;html=1;rounded=0;exitX=0.5;exitY=0;exitDx=0;exitDy=0;" parent="1" source="pakmp5gaQRSUFP-iVXFv-57" edge="1">
          <mxGeometry width="50" height="50" relative="1" as="geometry">
            <mxPoint x="400" y="360" as="sourcePoint" />
            <mxPoint x="400" y="200" as="targetPoint" />
            <Array as="points" />
          </mxGeometry>
        </mxCell>
        <mxCell id="pakmp5gaQRSUFP-iVXFv-30" value="" style="endArrow=none;html=1;rounded=0;exitX=0.5;exitY=0;exitDx=0;exitDy=0;" parent="1" source="pakmp5gaQRSUFP-iVXFv-58" edge="1">
          <mxGeometry width="50" height="50" relative="1" as="geometry">
            <mxPoint x="440" y="360" as="sourcePoint" />
            <mxPoint x="440" y="200" as="targetPoint" />
            <Array as="points" />
          </mxGeometry>
        </mxCell>
        <mxCell id="pakmp5gaQRSUFP-iVXFv-31" value="" style="endArrow=none;html=1;rounded=0;exitX=0.5;exitY=0;exitDx=0;exitDy=0;" parent="1" source="pakmp5gaQRSUFP-iVXFv-59" edge="1">
          <mxGeometry width="50" height="50" relative="1" as="geometry">
            <mxPoint x="480" y="360" as="sourcePoint" />
            <mxPoint x="480" y="200" as="targetPoint" />
            <Array as="points" />
          </mxGeometry>
        </mxCell>
        <mxCell id="pakmp5gaQRSUFP-iVXFv-32" value="" style="endArrow=none;html=1;rounded=0;exitX=0.5;exitY=0;exitDx=0;exitDy=0;" parent="1" source="pakmp5gaQRSUFP-iVXFv-60" edge="1">
          <mxGeometry width="50" height="50" relative="1" as="geometry">
            <mxPoint x="520" y="360" as="sourcePoint" />
            <mxPoint x="520" y="200" as="targetPoint" />
            <Array as="points" />
          </mxGeometry>
        </mxCell>
        <mxCell id="pakmp5gaQRSUFP-iVXFv-33" value="" style="endArrow=none;html=1;rounded=0;exitX=0.5;exitY=0;exitDx=0;exitDy=0;" parent="1" source="pakmp5gaQRSUFP-iVXFv-61" edge="1">
          <mxGeometry width="50" height="50" relative="1" as="geometry">
            <mxPoint x="560" y="360" as="sourcePoint" />
            <mxPoint x="560" y="200" as="targetPoint" />
            <Array as="points" />
          </mxGeometry>
        </mxCell>
        <mxCell id="pakmp5gaQRSUFP-iVXFv-34" value="" style="endArrow=none;html=1;rounded=0;exitX=0.5;exitY=0;exitDx=0;exitDy=0;" parent="1" source="pakmp5gaQRSUFP-iVXFv-62" edge="1">
          <mxGeometry width="50" height="50" relative="1" as="geometry">
            <mxPoint x="600" y="360" as="sourcePoint" />
            <mxPoint x="600" y="200" as="targetPoint" />
            <Array as="points" />
          </mxGeometry>
        </mxCell>
        <mxCell id="pakmp5gaQRSUFP-iVXFv-35" value="" style="endArrow=none;html=1;rounded=0;exitX=0.5;exitY=0;exitDx=0;exitDy=0;" parent="1" source="pakmp5gaQRSUFP-iVXFv-63" edge="1">
          <mxGeometry width="50" height="50" relative="1" as="geometry">
            <mxPoint x="640" y="360" as="sourcePoint" />
            <mxPoint x="640" y="200" as="targetPoint" />
            <Array as="points" />
          </mxGeometry>
        </mxCell>
        <mxCell id="pakmp5gaQRSUFP-iVXFv-36" value="" style="endArrow=none;html=1;rounded=0;exitX=0.5;exitY=0;exitDx=0;exitDy=0;" parent="1" source="pakmp5gaQRSUFP-iVXFv-64" edge="1">
          <mxGeometry width="50" height="50" relative="1" as="geometry">
            <mxPoint x="680" y="360" as="sourcePoint" />
            <mxPoint x="680" y="200" as="targetPoint" />
            <Array as="points" />
          </mxGeometry>
        </mxCell>
        <mxCell id="pakmp5gaQRSUFP-iVXFv-37" value="" style="endArrow=none;html=1;rounded=0;exitX=0.5;exitY=0;exitDx=0;exitDy=0;" parent="1" source="pakmp5gaQRSUFP-iVXFv-65" edge="1">
          <mxGeometry width="50" height="50" relative="1" as="geometry">
            <mxPoint x="720" y="360" as="sourcePoint" />
            <mxPoint x="720" y="200" as="targetPoint" />
            <Array as="points" />
          </mxGeometry>
        </mxCell>
        <mxCell id="pakmp5gaQRSUFP-iVXFv-38" value="" style="endArrow=none;html=1;rounded=0;exitX=0.5;exitY=0;exitDx=0;exitDy=0;" parent="1" source="pakmp5gaQRSUFP-iVXFv-66" edge="1">
          <mxGeometry width="50" height="50" relative="1" as="geometry">
            <mxPoint x="760" y="360" as="sourcePoint" />
            <mxPoint x="760" y="200" as="targetPoint" />
            <Array as="points" />
          </mxGeometry>
        </mxCell>
        <mxCell id="pakmp5gaQRSUFP-iVXFv-39" value="" style="endArrow=none;html=1;rounded=0;exitX=0.5;exitY=0;exitDx=0;exitDy=0;" parent="1" source="pakmp5gaQRSUFP-iVXFv-67" edge="1">
          <mxGeometry width="50" height="50" relative="1" as="geometry">
            <mxPoint x="800" y="360" as="sourcePoint" />
            <mxPoint x="800" y="200" as="targetPoint" />
            <Array as="points" />
          </mxGeometry>
        </mxCell>
        <mxCell id="pakmp5gaQRSUFP-iVXFv-40" value="" style="endArrow=none;html=1;rounded=0;exitX=0.5;exitY=0;exitDx=0;exitDy=0;" parent="1" source="pakmp5gaQRSUFP-iVXFv-68" edge="1">
          <mxGeometry width="50" height="50" relative="1" as="geometry">
            <mxPoint x="840" y="360" as="sourcePoint" />
            <mxPoint x="840" y="200" as="targetPoint" />
            <Array as="points" />
          </mxGeometry>
        </mxCell>
        <mxCell id="pakmp5gaQRSUFP-iVXFv-41" value="" style="endArrow=none;html=1;rounded=0;exitX=0.5;exitY=0;exitDx=0;exitDy=0;" parent="1" source="pakmp5gaQRSUFP-iVXFv-69" edge="1">
          <mxGeometry width="50" height="50" relative="1" as="geometry">
            <mxPoint x="880" y="360" as="sourcePoint" />
            <mxPoint x="880" y="200" as="targetPoint" />
            <Array as="points" />
          </mxGeometry>
        </mxCell>
        <mxCell id="pakmp5gaQRSUFP-iVXFv-42" value="" style="endArrow=none;html=1;rounded=0;exitX=0.5;exitY=0;exitDx=0;exitDy=0;" parent="1" source="pakmp5gaQRSUFP-iVXFv-70" edge="1">
          <mxGeometry width="50" height="50" relative="1" as="geometry">
            <mxPoint x="920" y="360" as="sourcePoint" />
            <mxPoint x="920" y="200" as="targetPoint" />
            <Array as="points" />
          </mxGeometry>
        </mxCell>
        <mxCell id="pakmp5gaQRSUFP-iVXFv-43" value="" style="endArrow=none;html=1;rounded=0;exitX=0.5;exitY=0;exitDx=0;exitDy=0;" parent="1" source="pakmp5gaQRSUFP-iVXFv-71" edge="1">
          <mxGeometry width="50" height="50" relative="1" as="geometry">
            <mxPoint x="960" y="360" as="sourcePoint" />
            <mxPoint x="960" y="200" as="targetPoint" />
            <Array as="points" />
          </mxGeometry>
        </mxCell>
        <mxCell id="pakmp5gaQRSUFP-iVXFv-44" value="" style="endArrow=none;html=1;rounded=0;exitX=0.5;exitY=0;exitDx=0;exitDy=0;" parent="1" source="pakmp5gaQRSUFP-iVXFv-72" edge="1">
          <mxGeometry width="50" height="50" relative="1" as="geometry">
            <mxPoint x="1000" y="360" as="sourcePoint" />
            <mxPoint x="1000" y="200" as="targetPoint" />
            <Array as="points" />
          </mxGeometry>
        </mxCell>
        <mxCell id="pakmp5gaQRSUFP-iVXFv-45" value="" style="endArrow=none;html=1;rounded=0;exitX=0.5;exitY=0;exitDx=0;exitDy=0;" parent="1" source="pakmp5gaQRSUFP-iVXFv-73" edge="1">
          <mxGeometry width="50" height="50" relative="1" as="geometry">
            <mxPoint x="1040" y="360" as="sourcePoint" />
            <mxPoint x="1040" y="200" as="targetPoint" />
            <Array as="points" />
          </mxGeometry>
        </mxCell>
        <mxCell id="pakmp5gaQRSUFP-iVXFv-46" value="" style="endArrow=none;html=1;rounded=0;exitX=0.5;exitY=0;exitDx=0;exitDy=0;" parent="1" source="pakmp5gaQRSUFP-iVXFv-74" edge="1">
          <mxGeometry width="50" height="50" relative="1" as="geometry">
            <mxPoint x="1080" y="360" as="sourcePoint" />
            <mxPoint x="1080" y="200" as="targetPoint" />
            <Array as="points" />
          </mxGeometry>
        </mxCell>
        <mxCell id="pakmp5gaQRSUFP-iVXFv-50" value="t=0" style="text;html=1;strokeColor=none;fillColor=none;align=center;verticalAlign=middle;whiteSpace=wrap;rounded=0;" parent="1" vertex="1">
          <mxGeometry x="100" y="481" width="40" height="30" as="geometry" />
        </mxCell>
        <mxCell id="pakmp5gaQRSUFP-iVXFv-51" value="1" style="text;html=1;strokeColor=none;fillColor=none;align=center;verticalAlign=middle;whiteSpace=wrap;rounded=0;" parent="1" vertex="1">
          <mxGeometry x="150" y="481" width="20" height="30" as="geometry" />
        </mxCell>
        <mxCell id="pakmp5gaQRSUFP-iVXFv-52" value="2" style="text;html=1;strokeColor=none;fillColor=none;align=center;verticalAlign=middle;whiteSpace=wrap;rounded=0;" parent="1" vertex="1">
          <mxGeometry x="190" y="480" width="20" height="30" as="geometry" />
        </mxCell>
        <mxCell id="pakmp5gaQRSUFP-iVXFv-53" value="3" style="text;html=1;strokeColor=none;fillColor=none;align=center;verticalAlign=middle;whiteSpace=wrap;rounded=0;" parent="1" vertex="1">
          <mxGeometry x="230" y="481" width="20" height="30" as="geometry" />
        </mxCell>
        <mxCell id="pakmp5gaQRSUFP-iVXFv-54" value="4" style="text;html=1;strokeColor=none;fillColor=none;align=center;verticalAlign=middle;whiteSpace=wrap;rounded=0;" parent="1" vertex="1">
          <mxGeometry x="270" y="481" width="20" height="30" as="geometry" />
        </mxCell>
        <mxCell id="pakmp5gaQRSUFP-iVXFv-55" value="5" style="text;html=1;strokeColor=none;fillColor=none;align=center;verticalAlign=middle;whiteSpace=wrap;rounded=0;" parent="1" vertex="1">
          <mxGeometry x="310" y="481" width="20" height="30" as="geometry" />
        </mxCell>
        <mxCell id="pakmp5gaQRSUFP-iVXFv-56" value="6" style="text;html=1;strokeColor=none;fillColor=none;align=center;verticalAlign=middle;whiteSpace=wrap;rounded=0;" parent="1" vertex="1">
          <mxGeometry x="350" y="481" width="20" height="30" as="geometry" />
        </mxCell>
        <mxCell id="pakmp5gaQRSUFP-iVXFv-57" value="7" style="text;html=1;strokeColor=none;fillColor=none;align=center;verticalAlign=middle;whiteSpace=wrap;rounded=0;" parent="1" vertex="1">
          <mxGeometry x="390" y="481" width="20" height="30" as="geometry" />
        </mxCell>
        <mxCell id="pakmp5gaQRSUFP-iVXFv-58" value="8" style="text;html=1;strokeColor=none;fillColor=none;align=center;verticalAlign=middle;whiteSpace=wrap;rounded=0;" parent="1" vertex="1">
          <mxGeometry x="430" y="481" width="20" height="30" as="geometry" />
        </mxCell>
        <mxCell id="pakmp5gaQRSUFP-iVXFv-59" value="9" style="text;html=1;strokeColor=none;fillColor=none;align=center;verticalAlign=middle;whiteSpace=wrap;rounded=0;" parent="1" vertex="1">
          <mxGeometry x="470" y="481" width="20" height="30" as="geometry" />
        </mxCell>
        <mxCell id="pakmp5gaQRSUFP-iVXFv-60" value="10" style="text;html=1;strokeColor=none;fillColor=none;align=center;verticalAlign=middle;whiteSpace=wrap;rounded=0;" parent="1" vertex="1">
          <mxGeometry x="510" y="481" width="20" height="30" as="geometry" />
        </mxCell>
        <mxCell id="pakmp5gaQRSUFP-iVXFv-61" value="11" style="text;html=1;strokeColor=none;fillColor=none;align=center;verticalAlign=middle;whiteSpace=wrap;rounded=0;" parent="1" vertex="1">
          <mxGeometry x="550" y="481" width="20" height="30" as="geometry" />
        </mxCell>
        <mxCell id="pakmp5gaQRSUFP-iVXFv-62" value="12" style="text;html=1;strokeColor=none;fillColor=none;align=center;verticalAlign=middle;whiteSpace=wrap;rounded=0;" parent="1" vertex="1">
          <mxGeometry x="590" y="481" width="20" height="30" as="geometry" />
        </mxCell>
        <mxCell id="pakmp5gaQRSUFP-iVXFv-63" value="13" style="text;html=1;strokeColor=none;fillColor=none;align=center;verticalAlign=middle;whiteSpace=wrap;rounded=0;" parent="1" vertex="1">
          <mxGeometry x="630" y="481" width="20" height="30" as="geometry" />
        </mxCell>
        <mxCell id="pakmp5gaQRSUFP-iVXFv-64" value="14" style="text;html=1;strokeColor=none;fillColor=none;align=center;verticalAlign=middle;whiteSpace=wrap;rounded=0;" parent="1" vertex="1">
          <mxGeometry x="670" y="481" width="20" height="30" as="geometry" />
        </mxCell>
        <mxCell id="pakmp5gaQRSUFP-iVXFv-65" value="15" style="text;html=1;strokeColor=none;fillColor=none;align=center;verticalAlign=middle;whiteSpace=wrap;rounded=0;" parent="1" vertex="1">
          <mxGeometry x="710" y="481" width="20" height="30" as="geometry" />
        </mxCell>
        <mxCell id="pakmp5gaQRSUFP-iVXFv-66" value="16" style="text;html=1;strokeColor=none;fillColor=none;align=center;verticalAlign=middle;whiteSpace=wrap;rounded=0;" parent="1" vertex="1">
          <mxGeometry x="750" y="481" width="20" height="30" as="geometry" />
        </mxCell>
        <mxCell id="pakmp5gaQRSUFP-iVXFv-67" value="17" style="text;html=1;strokeColor=none;fillColor=none;align=center;verticalAlign=middle;whiteSpace=wrap;rounded=0;" parent="1" vertex="1">
          <mxGeometry x="790" y="481" width="20" height="30" as="geometry" />
        </mxCell>
        <mxCell id="pakmp5gaQRSUFP-iVXFv-68" value="18" style="text;html=1;strokeColor=none;fillColor=none;align=center;verticalAlign=middle;whiteSpace=wrap;rounded=0;" parent="1" vertex="1">
          <mxGeometry x="830" y="481" width="20" height="30" as="geometry" />
        </mxCell>
        <mxCell id="pakmp5gaQRSUFP-iVXFv-69" value="19" style="text;html=1;strokeColor=none;fillColor=none;align=center;verticalAlign=middle;whiteSpace=wrap;rounded=0;" parent="1" vertex="1">
          <mxGeometry x="870" y="481" width="20" height="30" as="geometry" />
        </mxCell>
        <mxCell id="pakmp5gaQRSUFP-iVXFv-70" value="20" style="text;html=1;strokeColor=none;fillColor=none;align=center;verticalAlign=middle;whiteSpace=wrap;rounded=0;" parent="1" vertex="1">
          <mxGeometry x="910" y="481" width="20" height="30" as="geometry" />
        </mxCell>
        <mxCell id="pakmp5gaQRSUFP-iVXFv-71" value="21" style="text;html=1;strokeColor=none;fillColor=none;align=center;verticalAlign=middle;whiteSpace=wrap;rounded=0;" parent="1" vertex="1">
          <mxGeometry x="950" y="481" width="20" height="30" as="geometry" />
        </mxCell>
        <mxCell id="pakmp5gaQRSUFP-iVXFv-72" value="22" style="text;html=1;strokeColor=none;fillColor=none;align=center;verticalAlign=middle;whiteSpace=wrap;rounded=0;" parent="1" vertex="1">
          <mxGeometry x="990" y="481" width="20" height="30" as="geometry" />
        </mxCell>
        <mxCell id="pakmp5gaQRSUFP-iVXFv-73" value="23" style="text;html=1;strokeColor=none;fillColor=none;align=center;verticalAlign=middle;whiteSpace=wrap;rounded=0;" parent="1" vertex="1">
          <mxGeometry x="1030" y="481" width="20" height="30" as="geometry" />
        </mxCell>
        <mxCell id="pakmp5gaQRSUFP-iVXFv-74" value="24" style="text;html=1;strokeColor=none;fillColor=none;align=center;verticalAlign=middle;whiteSpace=wrap;rounded=0;" parent="1" vertex="1">
          <mxGeometry x="1070.5" y="481" width="20" height="30" as="geometry" />
        </mxCell>
        <mxCell id="pakmp5gaQRSUFP-iVXFv-77" value="" style="endArrow=none;html=1;rounded=0;strokeColor=#999999;" parent="1" edge="1">
          <mxGeometry width="50" height="50" relative="1" as="geometry">
            <mxPoint x="80" y="240" as="sourcePoint" />
            <mxPoint x="1400" y="240" as="targetPoint" />
          </mxGeometry>
        </mxCell>
        <mxCell id="pakmp5gaQRSUFP-iVXFv-78" value="" style="endArrow=none;html=1;rounded=0;exitX=0;exitY=0;exitDx=0;exitDy=0;strokeColor=#999999;" parent="1" source="pakmp5gaQRSUFP-iVXFv-49" edge="1">
          <mxGeometry width="50" height="50" relative="1" as="geometry">
            <mxPoint x="40" y="280" as="sourcePoint" />
            <mxPoint x="1400" y="280" as="targetPoint" />
          </mxGeometry>
        </mxCell>
        <mxCell id="pakmp5gaQRSUFP-iVXFv-79" value="" style="endArrow=none;html=1;rounded=0;strokeWidth=2;" parent="1" edge="1">
          <mxGeometry width="50" height="50" relative="1" as="geometry">
            <mxPoint x="40" y="319" as="sourcePoint" />
            <mxPoint x="1400" y="320" as="targetPoint" />
          </mxGeometry>
        </mxCell>
        <mxCell id="pakmp5gaQRSUFP-iVXFv-80" value="" style="endArrow=none;html=1;rounded=0;strokeColor=#999999;" parent="1" edge="1">
          <mxGeometry width="50" height="50" relative="1" as="geometry">
            <mxPoint x="80" y="360" as="sourcePoint" />
            <mxPoint x="1400" y="360" as="targetPoint" />
          </mxGeometry>
        </mxCell>
        <mxCell id="pakmp5gaQRSUFP-iVXFv-81" value="" style="endArrow=none;html=1;rounded=0;strokeWidth=2;" parent="1" edge="1">
          <mxGeometry width="50" height="50" relative="1" as="geometry">
            <mxPoint x="40" y="440" as="sourcePoint" />
            <mxPoint x="1400.4597701149426" y="440" as="targetPoint" />
          </mxGeometry>
        </mxCell>
        <mxCell id="pakmp5gaQRSUFP-iVXFv-82" value="" style="endArrow=none;html=1;rounded=0;strokeWidth=2;" parent="1" edge="1">
          <mxGeometry width="50" height="50" relative="1" as="geometry">
            <mxPoint x="40" y="200" as="sourcePoint" />
            <mxPoint x="1400" y="200" as="targetPoint" />
          </mxGeometry>
        </mxCell>
        <mxCell id="pakmp5gaQRSUFP-iVXFv-83" value="" style="endArrow=none;html=1;rounded=0;strokeWidth=2;" parent="1" edge="1">
          <mxGeometry width="50" height="50" relative="1" as="geometry">
            <mxPoint x="40" y="400" as="sourcePoint" />
            <mxPoint x="1400" y="400" as="targetPoint" />
          </mxGeometry>
        </mxCell>
        <mxCell id="pakmp5gaQRSUFP-iVXFv-84" value="" style="endArrow=none;html=1;rounded=0;" parent="1" edge="1">
          <mxGeometry width="50" height="50" relative="1" as="geometry">
            <mxPoint x="80" y="440" as="sourcePoint" />
            <mxPoint x="80" y="200" as="targetPoint" />
          </mxGeometry>
        </mxCell>
        <mxCell id="pakmp5gaQRSUFP-iVXFv-85" value="" style="endArrow=none;html=1;rounded=0;strokeWidth=2;" parent="1" edge="1">
          <mxGeometry width="50" height="50" relative="1" as="geometry">
            <mxPoint x="40" y="440" as="sourcePoint" />
            <mxPoint x="40" y="200" as="targetPoint" />
          </mxGeometry>
        </mxCell>
        <mxCell id="pakmp5gaQRSUFP-iVXFv-90" value="" style="endArrow=none;html=1;rounded=0;exitX=0.5;exitY=-0.066;exitDx=0;exitDy=0;exitPerimeter=0;" parent="1" source="pakmp5gaQRSUFP-iVXFv-98" edge="1">
          <mxGeometry width="50" height="50" relative="1" as="geometry">
            <mxPoint x="1120" y="520" as="sourcePoint" />
            <mxPoint x="1120" y="200" as="targetPoint" />
            <Array as="points" />
          </mxGeometry>
        </mxCell>
        <mxCell id="pakmp5gaQRSUFP-iVXFv-91" value="" style="endArrow=none;html=1;rounded=0;exitX=0.495;exitY=-0.07;exitDx=0;exitDy=0;exitPerimeter=0;" parent="1" source="pakmp5gaQRSUFP-iVXFv-99" edge="1">
          <mxGeometry width="50" height="50" relative="1" as="geometry">
            <mxPoint x="1160" y="520" as="sourcePoint" />
            <mxPoint x="1160" y="200" as="targetPoint" />
            <Array as="points" />
          </mxGeometry>
        </mxCell>
        <mxCell id="pakmp5gaQRSUFP-iVXFv-92" value="" style="endArrow=none;html=1;rounded=0;exitX=0.5;exitY=-0.066;exitDx=0;exitDy=0;exitPerimeter=0;" parent="1" source="pakmp5gaQRSUFP-iVXFv-100" edge="1">
          <mxGeometry width="50" height="50" relative="1" as="geometry">
            <mxPoint x="1200" y="520" as="sourcePoint" />
            <mxPoint x="1200" y="200" as="targetPoint" />
            <Array as="points" />
          </mxGeometry>
        </mxCell>
        <mxCell id="pakmp5gaQRSUFP-iVXFv-93" value="" style="endArrow=none;html=1;rounded=0;exitX=0.475;exitY=-0.073;exitDx=0;exitDy=0;exitPerimeter=0;" parent="1" source="pakmp5gaQRSUFP-iVXFv-101" edge="1">
          <mxGeometry width="50" height="50" relative="1" as="geometry">
            <mxPoint x="1240" y="520" as="sourcePoint" />
            <mxPoint x="1240" y="200" as="targetPoint" />
            <Array as="points" />
          </mxGeometry>
        </mxCell>
        <mxCell id="pakmp5gaQRSUFP-iVXFv-94" value="" style="endArrow=none;html=1;rounded=0;exitX=0.505;exitY=-0.063;exitDx=0;exitDy=0;exitPerimeter=0;" parent="1" source="pakmp5gaQRSUFP-iVXFv-102" edge="1">
          <mxGeometry width="50" height="50" relative="1" as="geometry">
            <mxPoint x="1280" y="520" as="sourcePoint" />
            <mxPoint x="1280" y="200" as="targetPoint" />
            <Array as="points" />
          </mxGeometry>
        </mxCell>
        <mxCell id="pakmp5gaQRSUFP-iVXFv-95" value="" style="endArrow=none;html=1;rounded=0;exitX=0.5;exitY=-0.07;exitDx=0;exitDy=0;exitPerimeter=0;" parent="1" source="pakmp5gaQRSUFP-iVXFv-103" edge="1">
          <mxGeometry width="50" height="50" relative="1" as="geometry">
            <mxPoint x="1320" y="520" as="sourcePoint" />
            <mxPoint x="1320" y="200" as="targetPoint" />
            <Array as="points" />
          </mxGeometry>
        </mxCell>
        <mxCell id="pakmp5gaQRSUFP-iVXFv-96" value="" style="endArrow=none;html=1;rounded=0;exitX=0.5;exitY=-0.059;exitDx=0;exitDy=0;exitPerimeter=0;" parent="1" source="pakmp5gaQRSUFP-iVXFv-104" edge="1">
          <mxGeometry width="50" height="50" relative="1" as="geometry">
            <mxPoint x="1360" y="520" as="sourcePoint" />
            <mxPoint x="1360" y="200" as="targetPoint" />
            <Array as="points" />
          </mxGeometry>
        </mxCell>
        <mxCell id="pakmp5gaQRSUFP-iVXFv-97" value="" style="endArrow=none;html=1;rounded=0;exitX=0.505;exitY=-0.063;exitDx=0;exitDy=0;exitPerimeter=0;" parent="1" source="pakmp5gaQRSUFP-iVXFv-105" edge="1">
          <mxGeometry width="50" height="50" relative="1" as="geometry">
            <mxPoint x="1400" y="520" as="sourcePoint" />
            <mxPoint x="1400" y="200" as="targetPoint" />
            <Array as="points" />
          </mxGeometry>
        </mxCell>
        <mxCell id="pakmp5gaQRSUFP-iVXFv-98" value="25" style="text;html=1;strokeColor=none;fillColor=none;align=center;verticalAlign=middle;whiteSpace=wrap;rounded=0;" parent="1" vertex="1">
          <mxGeometry x="1110" y="482" width="20" height="30" as="geometry" />
        </mxCell>
        <mxCell id="pakmp5gaQRSUFP-iVXFv-99" value="26" style="text;html=1;strokeColor=none;fillColor=none;align=center;verticalAlign=middle;whiteSpace=wrap;rounded=0;" parent="1" vertex="1">
          <mxGeometry x="1150" y="482" width="20" height="30" as="geometry" />
        </mxCell>
        <mxCell id="pakmp5gaQRSUFP-iVXFv-100" value="27" style="text;html=1;strokeColor=none;fillColor=none;align=center;verticalAlign=middle;whiteSpace=wrap;rounded=0;" parent="1" vertex="1">
          <mxGeometry x="1190" y="482" width="20" height="30" as="geometry" />
        </mxCell>
        <mxCell id="pakmp5gaQRSUFP-iVXFv-101" value="28" style="text;html=1;strokeColor=none;fillColor=none;align=center;verticalAlign=middle;whiteSpace=wrap;rounded=0;" parent="1" vertex="1">
          <mxGeometry x="1230.5" y="482" width="20" height="30" as="geometry" />
        </mxCell>
        <mxCell id="pakmp5gaQRSUFP-iVXFv-102" value="29" style="text;html=1;strokeColor=none;fillColor=none;align=center;verticalAlign=middle;whiteSpace=wrap;rounded=0;" parent="1" vertex="1">
          <mxGeometry x="1270" y="482" width="20" height="30" as="geometry" />
        </mxCell>
        <mxCell id="pakmp5gaQRSUFP-iVXFv-103" value="30" style="text;html=1;strokeColor=none;fillColor=none;align=center;verticalAlign=middle;whiteSpace=wrap;rounded=0;" parent="1" vertex="1">
          <mxGeometry x="1310" y="482" width="20" height="30" as="geometry" />
        </mxCell>
        <mxCell id="pakmp5gaQRSUFP-iVXFv-104" value="31" style="text;html=1;strokeColor=none;fillColor=none;align=center;verticalAlign=middle;whiteSpace=wrap;rounded=0;" parent="1" vertex="1">
          <mxGeometry x="1350" y="482" width="20" height="30" as="geometry" />
        </mxCell>
        <mxCell id="pakmp5gaQRSUFP-iVXFv-105" value="32" style="text;html=1;strokeColor=none;fillColor=none;align=center;verticalAlign=middle;whiteSpace=wrap;rounded=0;" parent="1" vertex="1">
          <mxGeometry x="1390" y="482" width="20" height="30" as="geometry" />
        </mxCell>
        <mxCell id="pakmp5gaQRSUFP-iVXFv-106" value="" style="endArrow=classic;html=1;rounded=0;strokeColor=#FF0000;" parent="1" edge="1">
          <mxGeometry width="50" height="50" relative="1" as="geometry">
            <mxPoint x="439.39" y="240" as="sourcePoint" />
            <mxPoint x="439.39" y="210" as="targetPoint" />
          </mxGeometry>
        </mxCell>
        <mxCell id="pakmp5gaQRSUFP-iVXFv-107" value="" style="endArrow=classic;html=1;rounded=0;strokeColor=#FF0000;" parent="1" edge="1">
          <mxGeometry width="50" height="50" relative="1" as="geometry">
            <mxPoint x="759.7" y="240" as="sourcePoint" />
            <mxPoint x="759.7" y="210" as="targetPoint" />
          </mxGeometry>
        </mxCell>
        <mxCell id="pakmp5gaQRSUFP-iVXFv-108" value="" style="endArrow=classic;html=1;rounded=0;strokeColor=#FF0000;" parent="1" edge="1">
          <mxGeometry width="50" height="50" relative="1" as="geometry">
            <mxPoint x="1080.2" y="240" as="sourcePoint" />
            <mxPoint x="1080.2" y="210" as="targetPoint" />
          </mxGeometry>
        </mxCell>
        <mxCell id="pakmp5gaQRSUFP-iVXFv-109" value="" style="endArrow=classic;html=1;rounded=0;strokeColor=#FF0000;" parent="1" edge="1">
          <mxGeometry width="50" height="50" relative="1" as="geometry">
            <mxPoint x="1399.7" y="240" as="sourcePoint" />
            <mxPoint x="1399.7" y="210" as="targetPoint" />
          </mxGeometry>
        </mxCell>
        <mxCell id="pakmp5gaQRSUFP-iVXFv-110" value="" style="endArrow=classic;html=1;rounded=0;strokeColor=#FF0000;" parent="1" edge="1">
          <mxGeometry width="50" height="50" relative="1" as="geometry">
            <mxPoint x="1399.7" y="280" as="sourcePoint" />
            <mxPoint x="1399.7" y="250" as="targetPoint" />
          </mxGeometry>
        </mxCell>
        <mxCell id="pakmp5gaQRSUFP-iVXFv-111" value="" style="endArrow=classic;html=1;rounded=0;strokeColor=#FF0000;" parent="1" edge="1">
          <mxGeometry width="50" height="50" relative="1" as="geometry">
            <mxPoint x="1399.7" y="320" as="sourcePoint" />
            <mxPoint x="1399.7" y="290" as="targetPoint" />
          </mxGeometry>
        </mxCell>
        <mxCell id="pakmp5gaQRSUFP-iVXFv-112" value="" style="endArrow=classic;html=1;rounded=0;strokeColor=#FF0000;" parent="1" edge="1">
          <mxGeometry width="50" height="50" relative="1" as="geometry">
            <mxPoint x="759.7" y="280" as="sourcePoint" />
            <mxPoint x="759.7" y="250" as="targetPoint" />
          </mxGeometry>
        </mxCell>
        <mxCell id="pakmp5gaQRSUFP-iVXFv-113" value="" style="endArrow=classic;html=1;rounded=0;strokeColor=#FF0000;" parent="1" edge="1">
          <mxGeometry width="50" height="50" relative="1" as="geometry">
            <mxPoint x="519.7" y="360" as="sourcePoint" />
            <mxPoint x="519.7" y="330" as="targetPoint" />
          </mxGeometry>
        </mxCell>
        <mxCell id="pakmp5gaQRSUFP-iVXFv-114" value="" style="endArrow=classic;html=1;rounded=0;strokeColor=#FF0000;" parent="1" edge="1">
          <mxGeometry width="50" height="50" relative="1" as="geometry">
            <mxPoint x="1159.7" y="360" as="sourcePoint" />
            <mxPoint x="1159.7" y="330" as="targetPoint" />
          </mxGeometry>
        </mxCell>
        <mxCell id="pakmp5gaQRSUFP-iVXFv-115" value="" style="endArrow=classic;html=1;rounded=0;strokeColor=#3333FF;" parent="1" edge="1">
          <mxGeometry width="50" height="50" relative="1" as="geometry">
            <mxPoint x="759.7" y="360" as="sourcePoint" />
            <mxPoint x="760" y="340" as="targetPoint" />
          </mxGeometry>
        </mxCell>
        <mxCell id="pakmp5gaQRSUFP-iVXFv-116" value="" style="endArrow=classic;html=1;rounded=0;strokeColor=#3333FF;" parent="1" edge="1">
          <mxGeometry width="50" height="50" relative="1" as="geometry">
            <mxPoint x="1399.82" y="360" as="sourcePoint" />
            <mxPoint x="1399.82" y="340" as="targetPoint" />
          </mxGeometry>
        </mxCell>
        <mxCell id="pakmp5gaQRSUFP-iVXFv-117" value="" style="endArrow=classic;html=1;rounded=0;strokeColor=#3333FF;" parent="1" edge="1">
          <mxGeometry width="50" height="50" relative="1" as="geometry">
            <mxPoint x="759.75" y="240" as="sourcePoint" />
            <mxPoint x="760.05" y="220" as="targetPoint" />
          </mxGeometry>
        </mxCell>
        <mxCell id="pakmp5gaQRSUFP-iVXFv-118" value="" style="endArrow=classic;html=1;rounded=0;strokeColor=#3333FF;" parent="1" edge="1">
          <mxGeometry width="50" height="50" relative="1" as="geometry">
            <mxPoint x="759.75" y="280" as="sourcePoint" />
            <mxPoint x="760.05" y="260" as="targetPoint" />
          </mxGeometry>
        </mxCell>
        <mxCell id="pakmp5gaQRSUFP-iVXFv-119" value="" style="endArrow=classic;html=1;rounded=0;strokeColor=#3333FF;" parent="1" edge="1">
          <mxGeometry width="50" height="50" relative="1" as="geometry">
            <mxPoint x="440" y="240" as="sourcePoint" />
            <mxPoint x="440.29999999999995" y="220" as="targetPoint" />
          </mxGeometry>
        </mxCell>
        <mxCell id="pakmp5gaQRSUFP-iVXFv-120" value="" style="endArrow=classic;html=1;rounded=0;strokeColor=#3333FF;" parent="1" edge="1">
          <mxGeometry width="50" height="50" relative="1" as="geometry">
            <mxPoint x="1080.25" y="240" as="sourcePoint" />
            <mxPoint x="1080.55" y="220" as="targetPoint" />
          </mxGeometry>
        </mxCell>
        <mxCell id="pakmp5gaQRSUFP-iVXFv-121" value="" style="endArrow=classic;html=1;rounded=0;strokeColor=#3333FF;" parent="1" edge="1">
          <mxGeometry width="50" height="50" relative="1" as="geometry">
            <mxPoint x="1399.75" y="240" as="sourcePoint" />
            <mxPoint x="1400.05" y="220" as="targetPoint" />
          </mxGeometry>
        </mxCell>
        <mxCell id="pakmp5gaQRSUFP-iVXFv-122" value="" style="endArrow=classic;html=1;rounded=0;strokeColor=#3333FF;" parent="1" edge="1">
          <mxGeometry width="50" height="50" relative="1" as="geometry">
            <mxPoint x="1399.75" y="280" as="sourcePoint" />
            <mxPoint x="1400.05" y="260" as="targetPoint" />
          </mxGeometry>
        </mxCell>
        <mxCell id="pakmp5gaQRSUFP-iVXFv-123" value="" style="endArrow=classic;html=1;rounded=0;strokeColor=#3333FF;" parent="1" edge="1">
          <mxGeometry width="50" height="50" relative="1" as="geometry">
            <mxPoint x="1399.75" y="320" as="sourcePoint" />
            <mxPoint x="1400.05" y="300" as="targetPoint" />
          </mxGeometry>
        </mxCell>
        <mxCell id="pakmp5gaQRSUFP-iVXFv-124" value="" style="endArrow=classic;html=1;rounded=0;strokeColor=#3333FF;" parent="1" edge="1">
          <mxGeometry width="50" height="50" relative="1" as="geometry">
            <mxPoint x="759.83" y="400" as="sourcePoint" />
            <mxPoint x="760.13" y="380" as="targetPoint" />
          </mxGeometry>
        </mxCell>
        <mxCell id="pakmp5gaQRSUFP-iVXFv-125" value="" style="endArrow=classic;html=1;rounded=0;strokeColor=#FF0000;" parent="1" edge="1">
          <mxGeometry width="50" height="50" relative="1" as="geometry">
            <mxPoint x="719.83" y="400" as="sourcePoint" />
            <mxPoint x="719.83" y="370" as="targetPoint" />
          </mxGeometry>
        </mxCell>
        <mxCell id="pakmp5gaQRSUFP-iVXFv-126" value="" style="endArrow=classic;html=1;rounded=0;strokeColor=#FF0000;" parent="1" edge="1">
          <mxGeometry width="50" height="50" relative="1" as="geometry">
            <mxPoint x="1359.71" y="400" as="sourcePoint" />
            <mxPoint x="1359.71" y="370" as="targetPoint" />
          </mxGeometry>
        </mxCell>
        <mxCell id="pakmp5gaQRSUFP-iVXFv-127" value="" style="endArrow=classic;html=1;rounded=0;strokeColor=#3333FF;" parent="1" edge="1">
          <mxGeometry width="50" height="50" relative="1" as="geometry">
            <mxPoint x="1399.8" y="400" as="sourcePoint" />
            <mxPoint x="1399.8" y="380" as="targetPoint" />
          </mxGeometry>
        </mxCell>
        <mxCell id="pakmp5gaQRSUFP-iVXFv-128" value="" style="endArrow=classic;html=1;rounded=0;strokeColor=#3333FF;" parent="1" edge="1">
          <mxGeometry width="50" height="50" relative="1" as="geometry">
            <mxPoint x="759.76" y="440" as="sourcePoint" />
            <mxPoint x="760.06" y="420" as="targetPoint" />
          </mxGeometry>
        </mxCell>
        <mxCell id="pakmp5gaQRSUFP-iVXFv-129" value="" style="endArrow=classic;html=1;rounded=0;strokeColor=#FF0000;" parent="1" edge="1">
          <mxGeometry width="50" height="50" relative="1" as="geometry">
            <mxPoint x="680" y="440" as="sourcePoint" />
            <mxPoint x="680" y="410" as="targetPoint" />
          </mxGeometry>
        </mxCell>
        <mxCell id="pakmp5gaQRSUFP-iVXFv-130" value="" style="endArrow=classic;html=1;rounded=0;strokeColor=#FF0000;" parent="1" edge="1">
          <mxGeometry width="50" height="50" relative="1" as="geometry">
            <mxPoint x="1319.76" y="440" as="sourcePoint" />
            <mxPoint x="1319.76" y="410" as="targetPoint" />
          </mxGeometry>
        </mxCell>
        <mxCell id="pakmp5gaQRSUFP-iVXFv-131" value="" style="endArrow=classic;html=1;rounded=0;strokeColor=#3333FF;" parent="1" edge="1">
          <mxGeometry width="50" height="50" relative="1" as="geometry">
            <mxPoint x="1399.76" y="440" as="sourcePoint" />
            <mxPoint x="1399.76" y="420" as="targetPoint" />
          </mxGeometry>
        </mxCell>
        <mxCell id="pakmp5gaQRSUFP-iVXFv-132" value="" style="endArrow=none;html=1;rounded=0;strokeWidth=2;" parent="1" edge="1">
          <mxGeometry width="50" height="50" relative="1" as="geometry">
            <mxPoint x="80" y="480" as="sourcePoint" />
            <mxPoint x="1400.4597701149426" y="480" as="targetPoint" />
          </mxGeometry>
        </mxCell>
        <mxCell id="pakmp5gaQRSUFP-iVXFv-133" value="" style="endArrow=none;html=1;rounded=0;entryX=0;entryY=1;entryDx=0;entryDy=0;strokeWidth=2;" parent="1" target="pakmp5gaQRSUFP-iVXFv-89" edge="1">
          <mxGeometry width="50" height="50" relative="1" as="geometry">
            <mxPoint x="80" y="480" as="sourcePoint" />
            <mxPoint x="120" y="450" as="targetPoint" />
          </mxGeometry>
        </mxCell>
        <mxCell id="pakmp5gaQRSUFP-iVXFv-135" value="" style="triangle;whiteSpace=wrap;html=1;rotation=-90;fillColor=#d5e8d4;gradientColor=#97d077;strokeColor=#82b366;" parent="1" vertex="1">
          <mxGeometry x="275" y="511" width="10" height="9" as="geometry" />
        </mxCell>
        <mxCell id="pakmp5gaQRSUFP-iVXFv-136" value="" style="triangle;whiteSpace=wrap;html=1;rotation=-90;fillColor=#d5e8d4;gradientColor=#97d077;strokeColor=#82b366;" parent="1" vertex="1">
          <mxGeometry x="435" y="511" width="10" height="9" as="geometry" />
        </mxCell>
        <mxCell id="pakmp5gaQRSUFP-iVXFv-137" value="" style="triangle;whiteSpace=wrap;html=1;rotation=-90;fillColor=#d5e8d4;gradientColor=#97d077;strokeColor=#82b366;" parent="1" vertex="1">
          <mxGeometry x="595" y="511" width="10" height="9" as="geometry" />
        </mxCell>
        <mxCell id="pakmp5gaQRSUFP-iVXFv-138" value="" style="triangle;whiteSpace=wrap;html=1;rotation=-90;fillColor=#d5e8d4;gradientColor=#97d077;strokeColor=#82b366;" parent="1" vertex="1">
          <mxGeometry x="755" y="511" width="10" height="9" as="geometry" />
        </mxCell>
        <mxCell id="pakmp5gaQRSUFP-iVXFv-139" value="" style="triangle;whiteSpace=wrap;html=1;rotation=-90;fillColor=#d5e8d4;gradientColor=#97d077;strokeColor=#82b366;" parent="1" vertex="1">
          <mxGeometry x="915" y="511" width="10" height="9" as="geometry" />
        </mxCell>
        <mxCell id="pakmp5gaQRSUFP-iVXFv-140" value="" style="triangle;whiteSpace=wrap;html=1;rotation=-90;fillColor=#d5e8d4;gradientColor=#97d077;strokeColor=#82b366;" parent="1" vertex="1">
          <mxGeometry x="1075.5" y="511" width="10" height="9" as="geometry" />
        </mxCell>
        <mxCell id="pakmp5gaQRSUFP-iVXFv-141" value="" style="triangle;whiteSpace=wrap;html=1;rotation=-90;fillColor=#d5e8d4;gradientColor=#97d077;strokeColor=#82b366;" parent="1" vertex="1">
          <mxGeometry x="1235.5" y="511" width="10" height="9" as="geometry" />
        </mxCell>
        <mxCell id="pakmp5gaQRSUFP-iVXFv-142" value="" style="triangle;whiteSpace=wrap;html=1;rotation=-90;fillColor=#d5e8d4;gradientColor=#97d077;strokeColor=#82b366;" parent="1" vertex="1">
          <mxGeometry x="1395" y="511" width="10" height="9" as="geometry" />
        </mxCell>
        <mxCell id="pakmp5gaQRSUFP-iVXFv-143" value="" style="triangle;whiteSpace=wrap;html=1;rotation=-90;fillColor=#f8cecc;gradientColor=#ea6b66;strokeColor=#b85450;" parent="1" vertex="1">
          <mxGeometry x="435" y="521" width="10" height="9" as="geometry" />
        </mxCell>
        <mxCell id="pakmp5gaQRSUFP-iVXFv-144" value="" style="triangle;whiteSpace=wrap;html=1;rotation=-90;fillColor=#f8cecc;gradientColor=#ea6b66;strokeColor=#b85450;" parent="1" vertex="1">
          <mxGeometry x="755" y="521" width="10" height="9" as="geometry" />
        </mxCell>
        <mxCell id="pakmp5gaQRSUFP-iVXFv-145" value="" style="triangle;whiteSpace=wrap;html=1;rotation=-90;fillColor=#f8cecc;gradientColor=#ea6b66;strokeColor=#b85450;" parent="1" vertex="1">
          <mxGeometry x="1075.5" y="521" width="10" height="9" as="geometry" />
        </mxCell>
        <mxCell id="pakmp5gaQRSUFP-iVXFv-146" value="" style="triangle;whiteSpace=wrap;html=1;rotation=-90;fillColor=#f8cecc;gradientColor=#ea6b66;strokeColor=#b85450;" parent="1" vertex="1">
          <mxGeometry x="1395" y="521" width="10" height="9" as="geometry" />
        </mxCell>
        <mxCell id="pakmp5gaQRSUFP-iVXFv-147" value="" style="triangle;whiteSpace=wrap;html=1;rotation=-90;fillColor=#ffcd28;gradientColor=#ffa500;strokeColor=#d79b00;" parent="1" vertex="1">
          <mxGeometry x="755" y="531" width="10" height="9" as="geometry" />
        </mxCell>
        <mxCell id="pakmp5gaQRSUFP-iVXFv-148" value="" style="triangle;whiteSpace=wrap;html=1;rotation=-90;fillColor=#ffcd28;gradientColor=#ffa500;strokeColor=#d79b00;" parent="1" vertex="1">
          <mxGeometry x="1395" y="531" width="10" height="9" as="geometry" />
        </mxCell>
        <mxCell id="pakmp5gaQRSUFP-iVXFv-149" value="" style="triangle;whiteSpace=wrap;html=1;rotation=-90;fillColor=#d5e8d4;gradientColor=#97d077;strokeColor=#82b366;" parent="1" vertex="1">
          <mxGeometry x="115" y="511" width="10" height="9" as="geometry" />
        </mxCell>
        <mxCell id="pakmp5gaQRSUFP-iVXFv-150" value="" style="triangle;whiteSpace=wrap;html=1;rotation=-90;fillColor=#f8cecc;gradientColor=#ea6b66;strokeColor=#b85450;" parent="1" vertex="1">
          <mxGeometry x="115" y="521" width="10" height="9" as="geometry" />
        </mxCell>
        <mxCell id="pakmp5gaQRSUFP-iVXFv-151" value="" style="triangle;whiteSpace=wrap;html=1;rotation=-90;fillColor=#ffcd28;gradientColor=#ffa500;strokeColor=#d79b00;" parent="1" vertex="1">
          <mxGeometry x="115" y="531" width="10" height="9" as="geometry" />
        </mxCell>
        <mxCell id="pakmp5gaQRSUFP-iVXFv-152" value="" style="endArrow=classic;html=1;rounded=0;strokeColor=#3333FF;" parent="1" edge="1">
          <mxGeometry width="50" height="50" relative="1" as="geometry">
            <mxPoint x="119.57999999999998" y="240" as="sourcePoint" />
            <mxPoint x="119.87999999999994" y="220" as="targetPoint" />
          </mxGeometry>
        </mxCell>
        <mxCell id="pakmp5gaQRSUFP-iVXFv-153" value="" style="endArrow=classic;html=1;rounded=0;strokeColor=#3333FF;" parent="1" edge="1">
          <mxGeometry width="50" height="50" relative="1" as="geometry">
            <mxPoint x="119.78999999999999" y="280" as="sourcePoint" />
            <mxPoint x="120.08999999999995" y="260" as="targetPoint" />
          </mxGeometry>
        </mxCell>
        <mxCell id="pakmp5gaQRSUFP-iVXFv-154" value="" style="endArrow=classic;html=1;rounded=0;strokeColor=#3333FF;" parent="1" edge="1">
          <mxGeometry width="50" height="50" relative="1" as="geometry">
            <mxPoint x="120" y="320" as="sourcePoint" />
            <mxPoint x="120.29999999999995" y="300" as="targetPoint" />
          </mxGeometry>
        </mxCell>
        <mxCell id="pakmp5gaQRSUFP-iVXFv-155" value="" style="endArrow=classic;html=1;rounded=0;strokeColor=#3333FF;" parent="1" edge="1">
          <mxGeometry width="50" height="50" relative="1" as="geometry">
            <mxPoint x="120" y="360" as="sourcePoint" />
            <mxPoint x="120.29999999999995" y="340" as="targetPoint" />
          </mxGeometry>
        </mxCell>
        <mxCell id="pakmp5gaQRSUFP-iVXFv-156" value="" style="endArrow=classic;html=1;rounded=0;strokeColor=#3333FF;" parent="1" edge="1">
          <mxGeometry width="50" height="50" relative="1" as="geometry">
            <mxPoint x="120" y="400" as="sourcePoint" />
            <mxPoint x="120.29999999999995" y="380" as="targetPoint" />
          </mxGeometry>
        </mxCell>
        <mxCell id="pakmp5gaQRSUFP-iVXFv-157" value="" style="endArrow=classic;html=1;rounded=0;strokeColor=#3333FF;" parent="1" edge="1">
          <mxGeometry width="50" height="50" relative="1" as="geometry">
            <mxPoint x="120" y="440" as="sourcePoint" />
            <mxPoint x="120.29999999999995" y="420" as="targetPoint" />
          </mxGeometry>
        </mxCell>
        <mxCell id="pakmp5gaQRSUFP-iVXFv-158" style="edgeStyle=orthogonalEdgeStyle;rounded=0;orthogonalLoop=1;jettySize=auto;html=1;exitX=1;exitY=0.5;exitDx=0;exitDy=0;" parent="1" source="pakmp5gaQRSUFP-iVXFv-159" edge="1">
          <mxGeometry relative="1" as="geometry">
            <mxPoint x="110" y="525.9090909090908" as="targetPoint" />
          </mxGeometry>
        </mxCell>
        <mxCell id="pakmp5gaQRSUFP-iVXFv-159" value="Periods of VM Budgets" style="text;html=1;strokeColor=default;fillColor=none;align=center;verticalAlign=middle;whiteSpace=wrap;rounded=1;" parent="1" vertex="1">
          <mxGeometry x="10" y="503" width="80" height="45" as="geometry" />
        </mxCell>
        <mxCell id="pakmp5gaQRSUFP-iVXFv-160" value="Task" style="swimlane;fontStyle=0;childLayout=stackLayout;horizontal=1;startSize=30;horizontalStack=0;resizeParent=1;resizeParentMax=0;resizeLast=0;collapsible=1;marginBottom=0;whiteSpace=wrap;html=1;align=center;" parent="1" vertex="1">
          <mxGeometry x="40" y="60" width="50" height="120" as="geometry" />
        </mxCell>
        <mxCell id="pakmp5gaQRSUFP-iVXFv-161" value="&lt;font style=&quot;border-color: var(--border-color); text-align: center; font-size: 18px;&quot;&gt;𝜏&lt;/font&gt;&lt;font style=&quot;border-color: var(--border-color); text-align: center; font-size: 15px;&quot;&gt;&lt;sub style=&quot;border-color: var(--border-color);&quot;&gt;1&lt;/sub&gt;&lt;/font&gt;" style="text;strokeColor=none;fillColor=none;align=left;verticalAlign=middle;spacingLeft=4;spacingRight=4;overflow=hidden;points=[[0,0.5],[1,0.5]];portConstraint=eastwest;rotatable=0;whiteSpace=wrap;html=1;" parent="pakmp5gaQRSUFP-iVXFv-160" vertex="1">
          <mxGeometry y="30" width="50" height="30" as="geometry" />
        </mxCell>
        <mxCell id="pakmp5gaQRSUFP-iVXFv-162" value="&lt;font style=&quot;border-color: var(--border-color); text-align: center; font-size: 18px;&quot;&gt;𝜏&lt;/font&gt;&lt;font style=&quot;border-color: var(--border-color); text-align: center; font-size: 12.5px;&quot;&gt;&lt;sub&gt;2&lt;/sub&gt;&lt;/font&gt;" style="text;strokeColor=none;fillColor=none;align=left;verticalAlign=middle;spacingLeft=4;spacingRight=4;overflow=hidden;points=[[0,0.5],[1,0.5]];portConstraint=eastwest;rotatable=0;whiteSpace=wrap;html=1;" parent="pakmp5gaQRSUFP-iVXFv-160" vertex="1">
          <mxGeometry y="60" width="50" height="30" as="geometry" />
        </mxCell>
        <mxCell id="pakmp5gaQRSUFP-iVXFv-163" value="&lt;font style=&quot;border-color: var(--border-color); text-align: center; font-size: 18px;&quot;&gt;𝜏&lt;/font&gt;&lt;font style=&quot;border-color: var(--border-color); text-align: center; font-size: 12.5px;&quot;&gt;&lt;sub&gt;3&lt;/sub&gt;&lt;/font&gt;" style="text;strokeColor=none;fillColor=none;align=left;verticalAlign=middle;spacingLeft=4;spacingRight=4;overflow=hidden;points=[[0,0.5],[1,0.5]];portConstraint=eastwest;rotatable=0;whiteSpace=wrap;html=1;" parent="pakmp5gaQRSUFP-iVXFv-160" vertex="1">
          <mxGeometry y="90" width="50" height="30" as="geometry" />
        </mxCell>
        <mxCell id="pakmp5gaQRSUFP-iVXFv-164" value="T" style="swimlane;fontStyle=0;childLayout=stackLayout;horizontal=1;startSize=30;horizontalStack=0;resizeParent=1;resizeParentMax=0;resizeLast=0;collapsible=1;marginBottom=0;whiteSpace=wrap;html=1;" parent="1" vertex="1">
          <mxGeometry x="140" y="60" width="50" height="120" as="geometry" />
        </mxCell>
        <mxCell id="pakmp5gaQRSUFP-iVXFv-165" value="8" style="text;strokeColor=none;fillColor=none;align=left;verticalAlign=middle;spacingLeft=4;spacingRight=4;overflow=hidden;points=[[0,0.5],[1,0.5]];portConstraint=eastwest;rotatable=0;whiteSpace=wrap;html=1;" parent="pakmp5gaQRSUFP-iVXFv-164" vertex="1">
          <mxGeometry y="30" width="50" height="30" as="geometry" />
        </mxCell>
        <mxCell id="pakmp5gaQRSUFP-iVXFv-166" value="16" style="text;strokeColor=none;fillColor=none;align=left;verticalAlign=middle;spacingLeft=4;spacingRight=4;overflow=hidden;points=[[0,0.5],[1,0.5]];portConstraint=eastwest;rotatable=0;whiteSpace=wrap;html=1;" parent="pakmp5gaQRSUFP-iVXFv-164" vertex="1">
          <mxGeometry y="60" width="50" height="30" as="geometry" />
        </mxCell>
        <mxCell id="pakmp5gaQRSUFP-iVXFv-167" value="32" style="text;strokeColor=none;fillColor=none;align=left;verticalAlign=middle;spacingLeft=4;spacingRight=4;overflow=hidden;points=[[0,0.5],[1,0.5]];portConstraint=eastwest;rotatable=0;whiteSpace=wrap;html=1;" parent="pakmp5gaQRSUFP-iVXFv-164" vertex="1">
          <mxGeometry y="90" width="50" height="30" as="geometry" />
        </mxCell>
        <mxCell id="pakmp5gaQRSUFP-iVXFv-168" value="D" style="swimlane;fontStyle=0;childLayout=stackLayout;horizontal=1;startSize=30;horizontalStack=0;resizeParent=1;resizeParentMax=0;resizeLast=0;collapsible=1;marginBottom=0;whiteSpace=wrap;html=1;" parent="1" vertex="1">
          <mxGeometry x="90" y="60" width="50" height="120" as="geometry" />
        </mxCell>
        <mxCell id="pakmp5gaQRSUFP-iVXFv-169" value="8" style="text;strokeColor=none;fillColor=none;align=left;verticalAlign=middle;spacingLeft=4;spacingRight=4;overflow=hidden;points=[[0,0.5],[1,0.5]];portConstraint=eastwest;rotatable=0;whiteSpace=wrap;html=1;" parent="pakmp5gaQRSUFP-iVXFv-168" vertex="1">
          <mxGeometry y="30" width="50" height="30" as="geometry" />
        </mxCell>
        <mxCell id="pakmp5gaQRSUFP-iVXFv-170" value="16" style="text;strokeColor=none;fillColor=none;align=left;verticalAlign=middle;spacingLeft=4;spacingRight=4;overflow=hidden;points=[[0,0.5],[1,0.5]];portConstraint=eastwest;rotatable=0;whiteSpace=wrap;html=1;" parent="pakmp5gaQRSUFP-iVXFv-168" vertex="1">
          <mxGeometry y="60" width="50" height="30" as="geometry" />
        </mxCell>
        <mxCell id="pakmp5gaQRSUFP-iVXFv-171" value="32" style="text;strokeColor=none;fillColor=none;align=left;verticalAlign=middle;spacingLeft=4;spacingRight=4;overflow=hidden;points=[[0,0.5],[1,0.5]];portConstraint=eastwest;rotatable=0;whiteSpace=wrap;html=1;" parent="pakmp5gaQRSUFP-iVXFv-168" vertex="1">
          <mxGeometry y="90" width="50" height="30" as="geometry" />
        </mxCell>
        <mxCell id="pakmp5gaQRSUFP-iVXFv-172" value="LCM(8,16,32) = 32" style="text;html=1;strokeColor=none;fillColor=none;align=center;verticalAlign=middle;whiteSpace=wrap;rounded=0;" parent="1" vertex="1">
          <mxGeometry x="689.9999999999999" y="150" width="110" height="30" as="geometry" />
        </mxCell>
        <mxCell id="pakmp5gaQRSUFP-iVXFv-173" value="" style="endArrow=classic;html=1;rounded=0;strokeColor=#FF0000;" parent="1" edge="1">
          <mxGeometry width="50" height="50" relative="1" as="geometry">
            <mxPoint x="728.7499999999999" y="90" as="sourcePoint" />
            <mxPoint x="728.7499999999999" y="60" as="targetPoint" />
          </mxGeometry>
        </mxCell>
        <mxCell id="pakmp5gaQRSUFP-iVXFv-174" value="Deadline =" style="text;html=1;strokeColor=none;fillColor=none;align=center;verticalAlign=middle;whiteSpace=wrap;rounded=0;" parent="1" vertex="1">
          <mxGeometry x="658.7499999999999" y="65" width="70" height="30" as="geometry" />
        </mxCell>
        <mxCell id="pakmp5gaQRSUFP-iVXFv-175" value="C" style="swimlane;fontStyle=0;childLayout=stackLayout;horizontal=1;startSize=30;horizontalStack=0;resizeParent=1;resizeParentMax=0;resizeLast=0;collapsible=1;marginBottom=0;whiteSpace=wrap;html=1;" parent="1" vertex="1">
          <mxGeometry x="190" y="60" width="50" height="120" as="geometry" />
        </mxCell>
        <mxCell id="pakmp5gaQRSUFP-iVXFv-176" value="2" style="text;strokeColor=none;fillColor=none;align=left;verticalAlign=middle;spacingLeft=4;spacingRight=4;overflow=hidden;points=[[0,0.5],[1,0.5]];portConstraint=eastwest;rotatable=0;whiteSpace=wrap;html=1;" parent="pakmp5gaQRSUFP-iVXFv-175" vertex="1">
          <mxGeometry y="30" width="50" height="30" as="geometry" />
        </mxCell>
        <mxCell id="pakmp5gaQRSUFP-iVXFv-177" value="3" style="text;strokeColor=none;fillColor=none;align=left;verticalAlign=middle;spacingLeft=4;spacingRight=4;overflow=hidden;points=[[0,0.5],[1,0.5]];portConstraint=eastwest;rotatable=0;whiteSpace=wrap;html=1;" parent="pakmp5gaQRSUFP-iVXFv-175" vertex="1">
          <mxGeometry y="60" width="50" height="30" as="geometry" />
        </mxCell>
        <mxCell id="pakmp5gaQRSUFP-iVXFv-178" value="2" style="text;strokeColor=none;fillColor=none;align=left;verticalAlign=middle;spacingLeft=4;spacingRight=4;overflow=hidden;points=[[0,0.5],[1,0.5]];portConstraint=eastwest;rotatable=0;whiteSpace=wrap;html=1;" parent="pakmp5gaQRSUFP-iVXFv-175" vertex="1">
          <mxGeometry y="90" width="50" height="30" as="geometry" />
        </mxCell>
        <mxCell id="pakmp5gaQRSUFP-iVXFv-179" value="Task" style="swimlane;fontStyle=0;childLayout=stackLayout;horizontal=1;startSize=30;horizontalStack=0;resizeParent=1;resizeParentMax=0;resizeLast=0;collapsible=1;marginBottom=0;whiteSpace=wrap;html=1;align=center;" parent="1" vertex="1">
          <mxGeometry x="240" y="60" width="50" height="90" as="geometry" />
        </mxCell>
        <mxCell id="pakmp5gaQRSUFP-iVXFv-180" value="&lt;font style=&quot;border-color: var(--border-color); text-align: center; font-size: 18px;&quot;&gt;𝜏&lt;/font&gt;&lt;font style=&quot;border-color: var(--border-color); text-align: center; font-size: 12.5px;&quot;&gt;&lt;sub&gt;4&lt;/sub&gt;&lt;/font&gt;" style="text;strokeColor=none;fillColor=none;align=left;verticalAlign=middle;spacingLeft=4;spacingRight=4;overflow=hidden;points=[[0,0.5],[1,0.5]];portConstraint=eastwest;rotatable=0;whiteSpace=wrap;html=1;" parent="pakmp5gaQRSUFP-iVXFv-179" vertex="1">
          <mxGeometry y="30" width="50" height="30" as="geometry" />
        </mxCell>
        <mxCell id="pakmp5gaQRSUFP-iVXFv-181" value="&lt;font style=&quot;border-color: var(--border-color); text-align: center; font-size: 18px;&quot;&gt;𝜏&lt;/font&gt;&lt;font style=&quot;border-color: var(--border-color); text-align: center; font-size: 12.5px;&quot;&gt;&lt;sub&gt;5&lt;/sub&gt;&lt;/font&gt;" style="text;strokeColor=none;fillColor=none;align=left;verticalAlign=middle;spacingLeft=4;spacingRight=4;overflow=hidden;points=[[0,0.5],[1,0.5]];portConstraint=eastwest;rotatable=0;whiteSpace=wrap;html=1;" parent="pakmp5gaQRSUFP-iVXFv-179" vertex="1">
          <mxGeometry y="60" width="50" height="30" as="geometry" />
        </mxCell>
        <mxCell id="pakmp5gaQRSUFP-iVXFv-182" value="T" style="swimlane;fontStyle=0;childLayout=stackLayout;horizontal=1;startSize=30;horizontalStack=0;resizeParent=1;resizeParentMax=0;resizeLast=0;collapsible=1;marginBottom=0;whiteSpace=wrap;html=1;" parent="1" vertex="1">
          <mxGeometry x="340" y="60" width="50" height="90" as="geometry" />
        </mxCell>
        <mxCell id="pakmp5gaQRSUFP-iVXFv-183" value="16" style="text;strokeColor=none;fillColor=none;align=left;verticalAlign=middle;spacingLeft=4;spacingRight=4;overflow=hidden;points=[[0,0.5],[1,0.5]];portConstraint=eastwest;rotatable=0;whiteSpace=wrap;html=1;" parent="pakmp5gaQRSUFP-iVXFv-182" vertex="1">
          <mxGeometry y="30" width="50" height="30" as="geometry" />
        </mxCell>
        <mxCell id="pakmp5gaQRSUFP-iVXFv-184" value="16" style="text;strokeColor=none;fillColor=none;align=left;verticalAlign=middle;spacingLeft=4;spacingRight=4;overflow=hidden;points=[[0,0.5],[1,0.5]];portConstraint=eastwest;rotatable=0;whiteSpace=wrap;html=1;" parent="pakmp5gaQRSUFP-iVXFv-182" vertex="1">
          <mxGeometry y="60" width="50" height="30" as="geometry" />
        </mxCell>
        <mxCell id="pakmp5gaQRSUFP-iVXFv-185" value="D" style="swimlane;fontStyle=0;childLayout=stackLayout;horizontal=1;startSize=30;horizontalStack=0;resizeParent=1;resizeParentMax=0;resizeLast=0;collapsible=1;marginBottom=0;whiteSpace=wrap;html=1;" parent="1" vertex="1">
          <mxGeometry x="290" y="60" width="50" height="90" as="geometry" />
        </mxCell>
        <mxCell id="pakmp5gaQRSUFP-iVXFv-186" value="10" style="text;strokeColor=none;fillColor=none;align=left;verticalAlign=middle;spacingLeft=4;spacingRight=4;overflow=hidden;points=[[0,0.5],[1,0.5]];portConstraint=eastwest;rotatable=0;whiteSpace=wrap;html=1;" parent="pakmp5gaQRSUFP-iVXFv-185" vertex="1">
          <mxGeometry y="30" width="50" height="30" as="geometry" />
        </mxCell>
        <mxCell id="pakmp5gaQRSUFP-iVXFv-187" value="15" style="text;strokeColor=none;fillColor=none;align=left;verticalAlign=middle;spacingLeft=4;spacingRight=4;overflow=hidden;points=[[0,0.5],[1,0.5]];portConstraint=eastwest;rotatable=0;whiteSpace=wrap;html=1;" parent="pakmp5gaQRSUFP-iVXFv-185" vertex="1">
          <mxGeometry y="60" width="50" height="30" as="geometry" />
        </mxCell>
        <mxCell id="pakmp5gaQRSUFP-iVXFv-188" value="C" style="swimlane;fontStyle=0;childLayout=stackLayout;horizontal=1;startSize=30;horizontalStack=0;resizeParent=1;resizeParentMax=0;resizeLast=0;collapsible=1;marginBottom=0;whiteSpace=wrap;html=1;" parent="1" vertex="1">
          <mxGeometry x="390" y="60" width="50" height="90" as="geometry" />
        </mxCell>
        <mxCell id="pakmp5gaQRSUFP-iVXFv-189" value="3" style="text;strokeColor=none;fillColor=none;align=left;verticalAlign=middle;spacingLeft=4;spacingRight=4;overflow=hidden;points=[[0,0.5],[1,0.5]];portConstraint=eastwest;rotatable=0;whiteSpace=wrap;html=1;" parent="pakmp5gaQRSUFP-iVXFv-188" vertex="1">
          <mxGeometry y="30" width="50" height="30" as="geometry" />
        </mxCell>
        <mxCell id="pakmp5gaQRSUFP-iVXFv-190" value="3" style="text;strokeColor=none;fillColor=none;align=left;verticalAlign=middle;spacingLeft=4;spacingRight=4;overflow=hidden;points=[[0,0.5],[1,0.5]];portConstraint=eastwest;rotatable=0;whiteSpace=wrap;html=1;" parent="pakmp5gaQRSUFP-iVXFv-188" vertex="1">
          <mxGeometry y="60" width="50" height="30" as="geometry" />
        </mxCell>
        <mxCell id="pakmp5gaQRSUFP-iVXFv-191" value="Task" style="swimlane;fontStyle=0;childLayout=stackLayout;horizontal=1;startSize=30;horizontalStack=0;resizeParent=1;resizeParentMax=0;resizeLast=0;collapsible=1;marginBottom=0;whiteSpace=wrap;html=1;align=center;" parent="1" vertex="1">
          <mxGeometry x="440" y="60" width="50" height="60" as="geometry" />
        </mxCell>
        <mxCell id="pakmp5gaQRSUFP-iVXFv-192" value="&lt;font style=&quot;border-color: var(--border-color); text-align: center; font-size: 18px;&quot;&gt;𝜏&lt;/font&gt;&lt;font style=&quot;border-color: var(--border-color); text-align: center; font-size: 12.5px;&quot;&gt;&lt;sub&gt;6&lt;/sub&gt;&lt;/font&gt;" style="text;strokeColor=none;fillColor=none;align=left;verticalAlign=middle;spacingLeft=4;spacingRight=4;overflow=hidden;points=[[0,0.5],[1,0.5]];portConstraint=eastwest;rotatable=0;whiteSpace=wrap;html=1;" parent="pakmp5gaQRSUFP-iVXFv-191" vertex="1">
          <mxGeometry y="30" width="50" height="30" as="geometry" />
        </mxCell>
        <mxCell id="pakmp5gaQRSUFP-iVXFv-193" value="T" style="swimlane;fontStyle=0;childLayout=stackLayout;horizontal=1;startSize=30;horizontalStack=0;resizeParent=1;resizeParentMax=0;resizeLast=0;collapsible=1;marginBottom=0;whiteSpace=wrap;html=1;" parent="1" vertex="1">
          <mxGeometry x="540" y="60" width="50" height="60" as="geometry" />
        </mxCell>
        <mxCell id="pakmp5gaQRSUFP-iVXFv-194" value="16" style="text;strokeColor=none;fillColor=none;align=left;verticalAlign=middle;spacingLeft=4;spacingRight=4;overflow=hidden;points=[[0,0.5],[1,0.5]];portConstraint=eastwest;rotatable=0;whiteSpace=wrap;html=1;" parent="pakmp5gaQRSUFP-iVXFv-193" vertex="1">
          <mxGeometry y="30" width="50" height="30" as="geometry" />
        </mxCell>
        <mxCell id="pakmp5gaQRSUFP-iVXFv-195" value="D" style="swimlane;fontStyle=0;childLayout=stackLayout;horizontal=1;startSize=30;horizontalStack=0;resizeParent=1;resizeParentMax=0;resizeLast=0;collapsible=1;marginBottom=0;whiteSpace=wrap;html=1;" parent="1" vertex="1">
          <mxGeometry x="490" y="60" width="50" height="60" as="geometry" />
        </mxCell>
        <mxCell id="pakmp5gaQRSUFP-iVXFv-196" value="14" style="text;strokeColor=none;fillColor=none;align=left;verticalAlign=middle;spacingLeft=4;spacingRight=4;overflow=hidden;points=[[0,0.5],[1,0.5]];portConstraint=eastwest;rotatable=0;whiteSpace=wrap;html=1;" parent="pakmp5gaQRSUFP-iVXFv-195" vertex="1">
          <mxGeometry y="30" width="50" height="30" as="geometry" />
        </mxCell>
        <mxCell id="pakmp5gaQRSUFP-iVXFv-197" value="C" style="swimlane;fontStyle=0;childLayout=stackLayout;horizontal=1;startSize=30;horizontalStack=0;resizeParent=1;resizeParentMax=0;resizeLast=0;collapsible=1;marginBottom=0;whiteSpace=wrap;html=1;" parent="1" vertex="1">
          <mxGeometry x="590" y="60" width="50" height="60" as="geometry" />
        </mxCell>
        <mxCell id="pakmp5gaQRSUFP-iVXFv-198" value="2" style="text;strokeColor=none;fillColor=none;align=left;verticalAlign=middle;spacingLeft=4;spacingRight=4;overflow=hidden;points=[[0,0.5],[1,0.5]];portConstraint=eastwest;rotatable=0;whiteSpace=wrap;html=1;" parent="pakmp5gaQRSUFP-iVXFv-197" vertex="1">
          <mxGeometry y="30" width="50" height="30" as="geometry" />
        </mxCell>
        <mxCell id="pakmp5gaQRSUFP-iVXFv-199" value="Deadline Monotonic Scheduling (Locally)&lt;br&gt;EDF scheduling (Globally)" style="rounded=1;whiteSpace=wrap;html=1;fillColor=none;" parent="1" vertex="1">
          <mxGeometry x="450" y="145" width="230" height="40" as="geometry" />
        </mxCell>
        <mxCell id="pakmp5gaQRSUFP-iVXFv-200" value="Period =" style="text;html=1;strokeColor=none;fillColor=none;align=center;verticalAlign=middle;whiteSpace=wrap;rounded=0;" parent="1" vertex="1">
          <mxGeometry x="660" y="90" width="80" height="30" as="geometry" />
        </mxCell>
        <mxCell id="pakmp5gaQRSUFP-iVXFv-201" value="" style="endArrow=classic;html=1;rounded=0;strokeColor=#3333FF;" parent="1" edge="1">
          <mxGeometry width="50" height="50" relative="1" as="geometry">
            <mxPoint x="728.75" y="115" as="sourcePoint" />
            <mxPoint x="729.05" y="95" as="targetPoint" />
          </mxGeometry>
        </mxCell>
        <mxCell id="pakmp5gaQRSUFP-iVXFv-202" value="&lt;font style=&quot;font-size: 12px;&quot;&gt;VM1, Q1=2, P=4&lt;/font&gt;" style="rounded=0;whiteSpace=wrap;html=1;fillColor=none;" parent="1" vertex="1">
          <mxGeometry x="40" y="30" width="100" height="30" as="geometry" />
        </mxCell>
        <mxCell id="pakmp5gaQRSUFP-iVXFv-203" value="&lt;font style=&quot;font-size: 12px;&quot;&gt;VM2, Q2=3, P=8&lt;/font&gt;" style="rounded=0;whiteSpace=wrap;html=1;fillColor=none;" parent="1" vertex="1">
          <mxGeometry x="240" y="30" width="100" height="30" as="geometry" />
        </mxCell>
        <mxCell id="pakmp5gaQRSUFP-iVXFv-204" value="&lt;font style=&quot;font-size: 12px;&quot;&gt;VM3, Q3=2, P=16&lt;/font&gt;" style="rounded=0;whiteSpace=wrap;html=1;fillColor=none;" parent="1" vertex="1">
          <mxGeometry x="440" y="30" width="100" height="30" as="geometry" />
        </mxCell>
        <mxCell id="pakmp5gaQRSUFP-iVXFv-206" style="edgeStyle=orthogonalEdgeStyle;rounded=0;orthogonalLoop=1;jettySize=auto;html=1;exitX=1;exitY=0.5;exitDx=0;exitDy=0;entryX=0;entryY=0.5;entryDx=0;entryDy=0;" parent="1" source="pakmp5gaQRSUFP-iVXFv-205" target="pakmp5gaQRSUFP-iVXFv-134" edge="1">
          <mxGeometry relative="1" as="geometry" />
        </mxCell>
        <mxCell id="pakmp5gaQRSUFP-iVXFv-205" value="Global scheduling" style="text;html=1;strokeColor=default;fillColor=none;align=center;verticalAlign=middle;whiteSpace=wrap;rounded=1;" parent="1" vertex="1">
          <mxGeometry y="442.5" width="60" height="35" as="geometry" />
        </mxCell>
        <mxCell id="pakmp5gaQRSUFP-iVXFv-217" value="Assumption: Period = Deadline" style="rounded=1;whiteSpace=wrap;html=1;fillColor=none;" parent="1" vertex="1">
          <mxGeometry x="10" y="555" width="180" height="30" as="geometry" />
        </mxCell>
      </root>
    </mxGraphModel>
  </diagram>
</mxfile>
